<?xml version="1.0" standalone="no"?>
<!DOCTYPE svg PUBLIC "-//W3C//DTD SVG 1.1//EN" "http://www.w3.org/Graphics/SVG/1.1/DTD/svg11.dtd" >
<svg>
<metadata>
Created by FontForge 20090622 at Thu Jun 25 11:17:26 2015
 By deploy user
http://www.fatorcaos.com.br
</metadata>
<defs>
<font id="NokiaCellphoneFC-Small" horiz-adv-x="1536" >
  <font-face 
    font-family="Nokia Cellphone FC"
    font-weight="400"
    font-variant="small-caps"
    font-stretch="squinchy"
    units-per-em="2048"
    panose-1="2 0 8 0 0 2 0 4 0 0"
    ascent="1638"
    descent="-410"
    x-height="1280"
    cap-height="1792"
    bbox="0 -512 2048 2048"
    underline-thickness="256"
    underline-position="-128"
    unicode-range="U+0020-U+20AC"
  />
<missing-glyph horiz-adv-x="768" 
 />
    <glyph glyph-name=".notdef" horiz-adv-x="768" 
 />
    <glyph glyph-name=".null" horiz-adv-x="768" 
 />
    <glyph glyph-name="nonmarkingreturn" horiz-adv-x="768" 
 />
    <glyph glyph-name="visiblespace" unicode=" " horiz-adv-x="768" 
 />
    <glyph glyph-name="two" unicode="2" 
d="M0 768h256v256h512v512h-768v256h1024v-256h256v-512h-256v-256h-512v-512h768v-256h-1280v768z" />
    <glyph glyph-name="nine" unicode="9" 
d="M512 768h256v768h-256v-768zM256 0v256h512v256h-512v256h-256v768h256v256h768v-256h256v-1280h-256v-256h-768z" />
    <glyph glyph-name="three" unicode="3" 
d="M0 1792h1024v-256h256v-512h-256v-256h256v-512h-256v-256h-1024v256h768v512h-512v256h512v512h-768v256z" />
    <glyph glyph-name="four" unicode="4" 
d="M512 1024h-256v256h256v-256zM768 1280h-254l-2 2v254h256v256h512v-1792h-512v512h-768v512h256v-256h512v512z" />
    <glyph glyph-name="five" unicode="5" 
d="M1280 1024v-768h-256v-256h-1024v256h768v768h-768v768h1024v-256h-768v-256h768v-256h256z" />
    <glyph glyph-name="six" unicode="6" 
d="M512 1024v-768h256v768h-256zM1280 1024v-768h-256v-256h-768v256h-256v1280h256v256h768v-256h-512v-256h512v-256h256z" />
    <glyph glyph-name="seven" unicode="7" 
d="M256 768h256v512h256v256h-768v256h1280v-512h-256v-512h-256v-768h-512v768z" />
    <glyph glyph-name="eight" unicode="8" 
d="M768 1024v512h-256v-512h256zM768 256v512h-256v-512h256zM1280 768v-512h-256v-256h-768v256h-256v512h256v256h-256v512h256v256h768v-256h256v-512h-256v-256h256z" />
    <glyph glyph-name="B" unicode="B" 
d="M512 1280h256v256h-256v-256zM768 1024h-256v-768h256v768zM1024 1792v-256h256v-256h-256v-256h256v-768h-256v-256h-1024v1792h1024z" />
    <glyph glyph-name="C" unicode="C" 
d="M256 1792h1024v-256h-768v-1280h768v-256h-1024v256h-256v1280h256v256z" />
    <glyph glyph-name="D" unicode="D" 
d="M768 256v1280h-256v-1280h256zM1024 1792v-256h256v-1280h-256v-256h-1024v1792h1024z" />
    <glyph glyph-name="F" unicode="F" 
d="M1024 1280v-256h-512v-1024h-512v1792h1280v-256h-768v-256h512z" />
    <glyph glyph-name="A" unicode="A" 
d="M512 512v-512h-512v1536h256v256h768v-256h256v-1536h-512v512h-256zM512 1536v-768h256v768h-256z" />
    <glyph glyph-name="G" unicode="G" 
d="M256 1792h768v-256h-512v-1280h256v768h512v-1024h-1024v256h-256v1280h256v256z" />
    <glyph glyph-name="H" unicode="H" 
d="M0 1792h512v-512h256v512h512v-1792h-512v1024h-256v-1024h-512v1792z" />
    <glyph glyph-name="I" unicode="I" horiz-adv-x="768" 
d="M0 0v1792h512v-1792h-512z" />
    <glyph glyph-name="J" unicode="J" horiz-adv-x="1280" 
d="M0 0v256h512v1536h512v-1536h-256v-256h-768z" />
    <glyph glyph-name="K" unicode="K" horiz-adv-x="1792" 
d="M1024 256h-256v256h-256v-512h-512v1792h512v-512h256v256h256v256h512v-256h-256v-256h-256v-256h-256v-256h256v-256h256v-256h256v-256h-512v256z" />
    <glyph glyph-name="L" unicode="L" horiz-adv-x="1280" 
d="M0 1792h512v-1536h512v-256h-1024v1792z" />
    <glyph glyph-name="M" unicode="M" horiz-adv-x="2048" 
d="M1280 768h-256v-256h-256v256h-256v-768h-512v1792h256v-256h256v-256h256v-256h256v256h256v256h256v256h256v-1792h-512v768z" />
    <glyph glyph-name="N" unicode="N" horiz-adv-x="1792" 
d="M1280 0v256h-256v256h-256v256h-256v-768h-512v1792h256v-256h256v-256h256v-256h256v768h512v-1792h-256z" />
    <glyph glyph-name="O" unicode="O" horiz-adv-x="1792" 
d="M1024 256v1280h-512v-1280h512zM256 0v256h-256v1280h256v256h1024v-256h256v-1280h-256v-256h-1024z" />
    <glyph glyph-name="P" unicode="P" 
d="M768 768v768h-256v-768h256zM1024 1792v-256h256v-768h-256v-256h-512v-512h-512v1792h1024z" />
    <glyph glyph-name="Q" unicode="Q" horiz-adv-x="1792" 
d="M768 256v256h256v1024h-512v-1280h256zM1024 0h-768v256h-256v1280h256v256h1024v-256h256v-1280h-256v-256h256v-256h-512v256z" />
    <glyph glyph-name="R" unicode="R" 
d="M768 768v768h-256v-768h256zM1280 256v-256h-512v512h-256v-512h-512v1792h1024v-256h256v-768h-256v-512h256z" />
    <glyph glyph-name="S" unicode="S" horiz-adv-x="1280" 
d="M0 256h512v512h-256v256h-256v512h256v256h768v-256h-512v-512h256v-256h256v-512h-256v-256h-768v256z" />
    <glyph glyph-name="T" unicode="T" horiz-adv-x="1792" 
d="M1536 1792v-256h-512v-1536h-512v1536h-512v256h1536z" />
    <glyph glyph-name="U" unicode="U" 
d="M768 256v1536h512v-1536h-256v-256h-768v256h-256v1536h512v-1536h256z" />
    <glyph glyph-name="V" unicode="V" horiz-adv-x="1792" 
d="M512 512h-256v512h-256v768h512v-768h512v768h512v-768h-256v-512h-256v-512h-512v512z" />
    <glyph glyph-name="W" unicode="W" horiz-adv-x="2048" 
d="M1280 1792h512v-1024h-256v-768h-512v256h-256v-256h-512v768h-256v1024h512v-768h256v256h256v-256h256v768z" />
    <glyph glyph-name="X" unicode="X" horiz-adv-x="1792" 
d="M0 0v512h256v256h256v256h-256v256h-256v512h512v-512h512v512h512v-512h-256v-256h-256v-256h256v-256h256v-512h-512v512h-512v-512h-512z" />
    <glyph glyph-name="Y" unicode="Y" horiz-adv-x="1792" 
d="M512 1024h-256v256h-256v512h512v-512h512v512h512v-512h-256v-256h-256v-1024h-512v1024z" />
    <glyph glyph-name="Z" unicode="Z" 
d="M1280 1024h-256v-256h-256v-256h-256v-256h768v-256h-1280v768h256v256h256v256h256v256h-768v256h1280v-768z" />
    <glyph glyph-name="E" unicode="E" 
d="M1024 1280v-256h-512v-768h768v-256h-1280v1792h1280v-256h-768v-256h512z" />
    <glyph glyph-name="a" unicode="a" 
d="M512 256h256v256h-256v-256zM1280 1024v-1024h-1024v256h-256v256h256v256h512v256h-512v256h768v-256h256z" />
    <glyph glyph-name="b" unicode="b" 
d="M768 1024h-256v-768h256v768zM1024 1280v-256h256v-768h-256v-256h-1024v1792h512v-512h512z" />
    <glyph glyph-name="c" unicode="c" horiz-adv-x="1280" 
d="M0 256v768h256v256h768v-256h-512v-768h512v-256h-768v256h-256z" />
    <glyph glyph-name="d" unicode="d" 
d="M768 1024h-256v-768h256v768zM256 0v256h-256v768h256v256h512v512h512v-1792h-1024z" />
    <glyph glyph-name="e" unicode="e" 
d="M512 768h256v256h-256v-256zM1280 1024v-512h-768v-256h768v-256h-1024v256h-256v768h256v256h768v-256h256z" />
    <glyph glyph-name="f" unicode="f" horiz-adv-x="1024" 
d="M768 1280v-256h-256v-1024h-512v1536h256v256h512v-256h-256v-256h256z" />
    <glyph glyph-name="g" unicode="g" 
d="M512 512h256v512h-256v-512zM256 0h512v256h-512v256h-256v512h256v256h1024v-1280h-256v-256h-768v256z" />
    <glyph glyph-name="h" unicode="h" 
d="M768 0v1024h-256v-1024h-512v1792h512v-512h512v-256h256v-1024h-512z" />
    <glyph glyph-name="i" unicode="i" horiz-adv-x="768" 
d="M512 1536h-512v256h512v-256zM0 0v1280h512v-1280h-512z" />
    <glyph glyph-name="j" unicode="j" horiz-adv-x="1024" 
d="M768 1536h-512v256h512v-256zM0 0h256v1280h512v-1280h-256v-256h-512v256z" />
    <glyph glyph-name="k" unicode="k" 
d="M512 0h-512v1792h512v-768h256v256h512v-256h-256v-256h-256v-256h256v-256h256v-256h-512v256h-256v-256z" />
    <glyph glyph-name="l" unicode="l" horiz-adv-x="768" 
d="M0 1792h512v-1792h-512v1792z" />
    <glyph glyph-name="m" unicode="m" horiz-adv-x="2304" 
d="M1536 1024h-256v-1024h-512v1024h-256v-1024h-512v1280h1792v-256h256v-1024h-512v1024z" />
    <glyph glyph-name="n" unicode="n" 
d="M1280 1024v-1024h-512v1024h-256v-1024h-512v1280h1024v-256h256z" />
    <glyph glyph-name="o" unicode="o" 
d="M768 256v768h-256v-768h256zM256 0v256h-256v768h256v256h768v-256h256v-768h-256v-256h-768z" />
    <glyph glyph-name="p" unicode="p" 
d="M768 512v512h-256v-512h256zM1024 1280v-256h256v-512h-256v-256h-512v-512h-512v1536h1024z" />
    <glyph glyph-name="q" unicode="q" 
d="M1280 1280v-1536h-512v512h-512v256h-256v512h256v256h1024zM768 512v512h-256v-512h256z" />
    <glyph glyph-name="r" unicode="r" horiz-adv-x="1280" 
d="M0 0v1280h512v-256h256v256h256v-512h-512v-768h-512z" />
    <glyph glyph-name="s" unicode="s" horiz-adv-x="1280" 
d="M1024 768v-512h-256v-256h-768v256h512v256h-512v512h256v256h768v-256h-512v-256h512z" />
    <glyph glyph-name="t" unicode="t" horiz-adv-x="1024" 
d="M768 256v-256h-512v256h-256v1536h512v-512h256v-256h-256v-768h256z" />
    <glyph glyph-name="u" unicode="u" 
d="M256 256h-256v1024h512v-1024h256v1024h512v-1280h-1024v256z" />
    <glyph glyph-name="v" unicode="v" 
d="M512 256h-256v512h-256v512h512v-512h256v512h512v-512h-256v-512h-256v-256h-256v256z" />
    <glyph glyph-name="w" unicode="w" horiz-adv-x="2048" 
d="M1280 1280h512v-768h-256v-512h-512v256h-256v-256h-512v512h-256v768h512v-768h256v512h256v-512h256v768z" />
    <glyph glyph-name="x" unicode="x" 
d="M0 0v512h256v256h-256v512h512v-512h256v512h512v-512h-256v-256h256v-512h-512v512h-256v-512h-512z" />
    <glyph glyph-name="y" unicode="y" 
d="M768 512v768h512v-1280h-256v-256h-768v256h512v256h-512v256h-256v768h512v-768h256z" />
    <glyph glyph-name="z" unicode="z" 
d="M0 1280h1280v-256h-256v-256h-256v-256h-256v-256h768v-256h-1280v512h256v256h256v256h-512v256z" />
    <glyph glyph-name="exclam" unicode="!" horiz-adv-x="768" 
d="M0 256h512v-256h-512v256zM512 512h-512v1280h512v-1280z" />
    <glyph glyph-name="quotedbl" unicode="&#x22;" horiz-adv-x="1024" 
d="M512 1792h256v-512h-256v512zM0 1792h256v-512h-256v512z" />
    <glyph glyph-name="numbersign" unicode="#" 
d="M512 768h256v256h-256v-256zM1280 1536v-512h-256v-256h256v-512h-256v-256h-256v256h-256v-256h-256v256h-256v512h256v256h-256v512h256v256h256v-256h256v256h256v-256h256z" />
    <glyph glyph-name="dollar" unicode="$" 
d="M512 1024h256v256h-256v-256zM512 512v-256h256v256h-256zM768 0h-256v-256h-256v256h-256v256h256v512h-256v512h256v512h256v-256h256v256h256v-256h256v-256h-256v-512h256v-512h-256v-512h-256v256z" />
    <glyph glyph-name="percent" unicode="%" horiz-adv-x="1792" 
d="M1024 0v512h512v-512h-512zM0 1792h512v-512h-512v512zM1024 768h-256v-512h-256v-256h-256v512h256v512h256v512h256v256h256v-517h-256v-507z" />
    <glyph glyph-name="ampersand" unicode="&#x26;" horiz-adv-x="1792" 
d="M768 1280v256h-256v-256h256zM768 256v512h-256v-512h256zM1280 256h-256v-256h-768v256h-256v768h256v256h-256v256h256v256h768v-256h256v-256h-256v-512h256v256h256v-1024h-256v256z" />
    <glyph glyph-name="quotesingle" unicode="'" horiz-adv-x="512" 
d="M0 1792h256v-512h-256v512z" />
    <glyph glyph-name="parenleft" unicode="(" horiz-adv-x="1024" 
d="M768 0v-256h-256v256h256zM512 1792h256v-256h-256v256zM256 0v256h-256v1024h256v256h256v-1536h-256z" />
    <glyph glyph-name="parenright" unicode=")" horiz-adv-x="1024" 
d="M256 0v1536h256v-256h256v-1024h-256v-256h-256zM256 1536h-256v256h256v-256zM256 0v-256h-256v256h256z" />
    <glyph glyph-name="asterisk" unicode="*" 
d="M1280 768v-512h-256v256h-256v-512h-256v512h-256v-256h-256v512h256v256h-256v512h256v-256h256v512h256v-512h256v256h256v-512h-256v-256h256z" />
    <glyph glyph-name="plus" unicode="+" 
d="M768 256h-256v512h-512v256h512v512h256v-512h512v-256h-512v-512z" />
    <glyph glyph-name="comma" unicode="," horiz-adv-x="768" 
d="M0 256h256v256h256v-512h-256v-256h-256v512z" />
    <glyph glyph-name="hyphen" unicode="-" horiz-adv-x="1280" 
d="M0 768v256h1024v-256h-1024z" />
    <glyph glyph-name="period" unicode="." horiz-adv-x="768" 
d="M0 512h512v-512h-512v512z" />
    <glyph glyph-name="slash" unicode="/" horiz-adv-x="1024" 
d="M512 507h-256v-507h-256v768h256v512h256v517h256v-773h-256v-517z" />
    <glyph glyph-name="colon" unicode=":" horiz-adv-x="768" 
d="M0 1280h512v-512h-512v512zM0 512h512v-512h-512v512z" />
    <glyph glyph-name="semicolon" unicode=";" horiz-adv-x="768" 
d="M0 256h256v256h256v-512h-256v-256h-256v512zM0 1280h512v-512h-512v512z" />
    <glyph glyph-name="less" unicode="&#x3c;" horiz-adv-x="1280" 
d="M1024 512v-512h-256v256h-256v256h-256v256h-256v256h256v256h256v256h256v256h256v-512h-256v-256h-256v-256h256v-256h256z" />
    <glyph glyph-name="equal" unicode="=" horiz-adv-x="1280" 
d="M0 256v256h1024v-256h-1024zM0 768v256h1024v-256h-1024z" />
    <glyph glyph-name="greater" unicode="&#x3e;" horiz-adv-x="1280" 
d="M256 512v256h256v256h-256v256h-256v512h256v-256h256v-256h256v-256h256v-256h-256v-256h-256v-256h-256v-256h-256v512h256z" />
    <glyph glyph-name="question" unicode="?" 
d="M256 256h512v-256h-512v256zM256 1024h256v256h256v256h-768v256h1024v-256h256v-256h-256v-256h-256v-512h-512v512z" />
    <glyph glyph-name="bracketleft" unicode="[" horiz-adv-x="1024" 
d="M0 1792h768v-256h-256v-1536h256v-256h-768v2048z" />
    <glyph glyph-name="backslash" unicode="\" horiz-adv-x="1024" 
d="M256 1024h-256v773h256v-517h256v-512h256v-768h-256v507h-256v517z" />
    <glyph glyph-name="bracketright" unicode="]" horiz-adv-x="1024" 
d="M768 -256h-768v256h256v1536h-256v256h768v-2048z" />
    <glyph glyph-name="underscore" unicode="_" 
d="M0 256h1536v-256h-1536v256z" />
    <glyph glyph-name="braceleft" unicode="{" horiz-adv-x="1024" 
d="M0 1792h768v-256h-256v-1536h256v-256h-768v2048z" />
    <glyph glyph-name="bar" unicode="|" horiz-adv-x="768" 
d="M0 1792h512v-2048h-512v2048z" />
    <glyph glyph-name="braceright" unicode="}" horiz-adv-x="1024" 
d="M768 -256h-768v256h256v1536h-256v256h768v-2048z" />
    <glyph glyph-name="Agrave" unicode="&#xc0;" 
d="M512 768h256v256h-256v-256zM256 1792h256v-256h-256v256zM512 0h-512v1024h256v256h256v256h256v-256h256v-256h256v-1024h-512v512h-256v-512z" />
    <glyph glyph-name="Aacute" unicode="&#xc1;" 
d="M768 1792h256v-256h-256v256zM512 768h256v256h-256v-256zM512 0h-512v1024h256v256h256v256h256v-256h256v-256h256v-1024h-512v512h-256v-512z" />
    <glyph glyph-name="Acircumflex" unicode="&#xc2;" 
d="M512 768h256v256h-256v-256zM512 1534v-254h256v256h-256v256h256v-256h256v-256h256v-1280h-512v512h-256v-512h-512v1280h256v256h254z" />
    <glyph glyph-name="Atilde" unicode="&#xc3;" 
d="M1024 1792h256v-256h-256v256zM512 768h256v256h-256v-256zM256 1534v-254h256v256h-256v256h512v-256h256v-512h256v-1024h-512v512h-256v-512h-512v1024h256v256h-256v256h254z" />
    <glyph glyph-name="agrave" unicode="&#xe0;" 
d="M512 256h256v256h-256v-256zM512 1792h256v-256h256v-512h256v-1024h-1024v256h-256v256h256v256h512v256h-512v256h512v256h-256v256z" />
    <glyph glyph-name="aacute" unicode="&#xe1;" 
d="M512 256h256v256h-256v-256zM768 1792h256v-256h-256v256zM1280 1024v-1024h-1024v256h-256v256h256v256h512v256h-512v256h256v256h256v-256h256v-256h256z" />
    <glyph glyph-name="acircumflex" unicode="&#xe2;" 
d="M512 256h256v256h-256v-256zM512 1534v-254h256v256h-256v256h256v-256h256v-256h256v-1280h-1024v256h-256v256h256v256h512v256h-768v256h256v256h254z" />
    <glyph glyph-name="atilde" unicode="&#xe3;" 
d="M1024 1792h256v-256h-256v256zM512 256h256v256h-256v-256zM256 1280h256v256h-256v256h512v-256h256v-512h256v-1024h-1024v256h-256v256h256v256h512v256h-512v256h-256v256h254l2 -2v-254z" />
    <glyph glyph-name="adieresis" unicode="&#xe4;" 
d="M512 256h256v256h-256v-256zM768 1792h256v-256h-256v256zM256 1792h256v-256h-256v256zM256 1280h768v-256h256v-1024h-1024v256h-256v256h256v256h512v256h-512v256z" />
    <glyph glyph-name="Ntilde" unicode="&#xd1;" 
d="M1024 1792h256v-256h-256v256zM256 1024h256v-256h256v512h-256v256h-254l-2 2v254h512v-256h256v-256h256v-1280h-256v256h-256v256h-256v-512h-512v1536h256v-512z" />
    <glyph glyph-name="ntilde" unicode="&#xf1;" 
d="M1024 1792h256v-256h-256v256zM256 1534v-254h256v256h-256v256h512v-256h256v-512h256v-1024h-512v1024h-256v-1024h-512v1536h254z" />
    <glyph glyph-name="Ccedilla" unicode="&#xc7;" 
d="M512 0h-256v256h-256v1280h256v256h1024v-256h-768v-1280h768v-256h-512v-256h-256v256z" />
    <glyph glyph-name="ccedilla" unicode="&#xe7;" horiz-adv-x="1280" 
d="M512 0h-256v256h-256v768h256v256h768v-256h-512v-768h512v-256h-256v-256h-256v256z" />
    <glyph glyph-name="Eacute" unicode="&#xc9;" 
d="M768 1792h256v-256h-256v256zM1024 768v-256h-512v-256h768v-256h-1280v1280h512v256h256v-256h512v-256h-768v-256h512z" />
    <glyph glyph-name="Ecircumflex" unicode="&#xca;" 
d="M512 1792h256v-256h256v-256h256v-256h-768v-256h512v-256h-512v-256h768v-256h-1280v1280h256v256h256v-256h256v256h-256v256z" />
    <glyph glyph-name="eacute" unicode="&#xe9;" 
d="M512 768h256v256h-256v-256zM768 1792h256v-256h-256v256zM1280 1024v-512h-768v-256h768v-256h-1024v256h-256v768h256v256h251v256h261v-256h256v-256h256z" />
    <glyph glyph-name="ecircumflex" unicode="&#xea;" 
d="M512 768h256v256h-256v-256zM512 1534v-254h256v256h-256v256h256v-256h256v-256h256v-768h-768v-256h768v-256h-1024v256h-256v1024h256v256h254z" />
    <glyph glyph-name="Igrave" unicode="&#xcc;" horiz-adv-x="768" 
d="M256 1536h-256v256h256v-256zM0 0v1280h256v256h256v-1536h-512z" />
    <glyph glyph-name="Iacute" unicode="&#xcd;" horiz-adv-x="768" 
d="M512 1536h-256v256h256v-256zM0 0v1536h256v-256h256v-1280h-512z" />
    <glyph glyph-name="igrave" unicode="&#xec;" horiz-adv-x="768" 
d="M256 1536h-256v256h256v-256zM0 0v1280h256v256h256v-1536h-512z" />
    <glyph glyph-name="iacute" unicode="&#xed;" horiz-adv-x="768" 
d="M512 1536h-256v256h256v-256zM0 0v1536h256v-256h256v-1280h-512z" />
    <glyph glyph-name="asciicircum" unicode="^" horiz-adv-x="1024" 
d="M0 1536h256v256h256v-256h256v-512h-256v256h-256v-256h-256v512z" />
    <glyph glyph-name="asciitilde" unicode="~" 
d="M1024 1792h256v-256h-256v256zM256 1280h-256v256h256v-256zM256 1792h512v-256h256v-256h-512v256h-256v256z" />
    <glyph glyph-name="Oacute" unicode="&#xd3;" horiz-adv-x="1792" 
d="M768 1792h256v-256h-256v256zM1024 256v768h-512v-768h512zM256 0v256h-256v768h256v256h256v256h256v-256h512v-256h256v-768h-256v-256h-1024z" />
    <glyph glyph-name="Ocircumflex" unicode="&#xd4;" horiz-adv-x="1792" 
d="M1024 256v768h-512v-768h512zM512 1534v-254h512v256h-512v256h512v-256h256v-256h256v-1024h-256v-256h-1024v256h-256v1024h256v256h254z" />
    <glyph glyph-name="Otilde" unicode="&#xd5;" horiz-adv-x="1792" 
d="M1280 1792h256v-256h-256v256zM1024 256v768h-512v-768h512zM512 1534v-254h256v256h-256v256h512v-256h256v-512h256v-768h-256v-256h-1024v256h-256v768h256v512h254z" />
    <glyph glyph-name="oacute" unicode="&#xf3;" 
d="M768 1792h256v-256h-256v256zM768 256v768h-256v-768h256zM256 0v256h-256v768h256v256h256v256h256v-256h256v-256h256v-768h-256v-256h-768z" />
    <glyph glyph-name="ocircumflex" unicode="&#xf4;" 
d="M768 256v768h-256v-768h256zM768 1536h-256v256h256v-256h256v-256h256v-1024h-256v-256h-768v256h-256v1024h256v256h254l2 -2v-254h256v256z" />
    <glyph glyph-name="otilde" unicode="&#xf5;" 
d="M1024 1792h256v-256h-256v256zM768 256v768h-256v-768h256zM256 1534v-254h256v256h-256v256h512v-256h256v-512h256v-768h-256v-256h-768v256h-256v768h256v256h-256v256h254z" />
    <glyph glyph-name="Uacute" unicode="&#xda;" 
d="M768 1792h256v-256h-256v256zM512 1278v-1022h256v1024h-256v256h256v-256h512v-1024h-256v-256h-768v256h-256v1024h510z" />
    <glyph glyph-name="uacute" unicode="&#xfa;" 
d="M768 1792h256v-256h-256v256zM512 1278v-1022h256v1024h-256v256h256v-256h512v-1280h-1024v256h-256v1024h510z" />
    <glyph glyph-name="at" unicode="@" horiz-adv-x="1792" 
d="M512 512h256v256h-256v-256zM512 1024h512v256h-512v-256zM1280 0v-256h-1024v256h-256v1280h256v256h1024v-256h256v-1024h-1024v-256h768z" />
    <glyph glyph-name="one" unicode="1" horiz-adv-x="1024" 
d="M0 1536h256v256h512v-1792h-512v1280h-256v256z" />
    <glyph glyph-name="odieresis" unicode="&#xf6;" 
d="M768 1792h256v-256h-256v256zM256 1792h256v-256h-256v256zM768 256v768h-256v-768h256zM256 0v256h-256v768h256v256h768v-256h256v-768h-256v-256h-768z" />
    <glyph glyph-name="Odieresis" unicode="&#xd6;" horiz-adv-x="1792" 
d="M1024 1792h256v-256h-256v256zM256 1792h256v-256h-256v256zM1024 256v768h-512v-768h512zM256 0v256h-256v768h256v256h1024v-256h256v-768h-256v-256h-1024z" />
    <glyph glyph-name="exclamdown" unicode="&#xa1;" horiz-adv-x="768" 
d="M512 1536h-512v256h512v-256zM0 1280h512v-1280h-512v1280z" />
    <glyph glyph-name="yen" unicode="&#xa5;" horiz-adv-x="1792" 
d="M0 768h512v256h-512v256h256v256h-256v256h512v-256h512v256h512v-256h-256v-256h256v-256h-512v-256h512v-256h-512v-512h-512v512h-512v256z" />
    <glyph glyph-name="section" unicode="&#xa7;" horiz-adv-x="1280" 
d="M768 1534l2 2h254v-256h-256v254zM256 2l-2 -2h-254v256h256v-254zM512 512h256v256h-256v-256zM512 1024h-256v-256h256v256zM768 1024h256v-1024h-256v-256h-512v256h256v256h-256v256h-256v1024h256v256h512v-256h-256v-256h256v-256z" />
    <glyph glyph-name="sterling" unicode="&#xa3;" 
d="M0 256h256v256h-256v256h256v768h256v256h768v-256h-512v-768h256v-256h-256v-256h512v-256h-1280v256z" />
    <glyph glyph-name="udieresis" unicode="&#xfc;" 
d="M256 1792h256v-256h-256v256zM768 1792h256v-256h-256v256zM768 256v1024h512v-1280h-1024v256h-256v1024h512v-1024h256z" />
    <glyph glyph-name="Udieresis" unicode="&#xdc;" 
d="M256 1792h256v-256h-256v256zM768 1792h256v-256h-256v256zM768 256v1024h512v-1024h-256v-256h-768v256h-256v1024h512v-1024h256z" />
    <glyph glyph-name="circumflex" unicode="&#x2c6;" horiz-adv-x="1024" 
d="M0 1536h256v256h256v-256h256v-512h-256v256h-256v-256h-256v512z" />
    <glyph glyph-name="questiondown" unicode="&#xbf;" 
d="M1024 1536h-512v256h512v-256zM1024 768h-256v-256h-256v-256h768v-256h-1024v256h-256v256h256v256h256v512h512v-512z" />
    <glyph glyph-name="currency" unicode="&#xa4;" 
d="M1024 1536h256v-256h-256v256zM0 256h256v-256h-256v256zM768 1024h-256v-512h256v512zM0 1536h256v-256h768v-256h256v-512h-256v-256h256v-256h-256v256h-768v256h-256v512h256v256h-256v256z" />
    <glyph glyph-name="Adieresis" unicode="&#xc4;" 
d="M256 1792h256v-256h-256v256zM512 768h256v256h-256v-256zM768 1792h256v-256h-256v256zM512 0h-512v1024h256v256h768v-256h256v-1024h-512v512h-256v-512z" />
    <glyph glyph-name="AE" unicode="&#xc6;" horiz-adv-x="2048" 
d="M512 1024h256v256h-256v-256zM512 1792h1280v-256h-512v-512h256v-256h-256v-512h512v-256h-1024v768h-256v-768h-512v1280h256v256h256v256z" />
    <glyph glyph-name="ae" unicode="&#xe6;" horiz-adv-x="2048" 
d="M512 256h256v256h-256v-256zM1280 768h256v254l2 2h254v-512h-512v-256h512v-256h-1536v256h-256v256h256v256h512v256h-512v256h1280v-256h-256v-256z" />
    <glyph glyph-name="Egrave" unicode="&#xc8;" 
d="M512 1792v-256h-256v256h256zM1024 768v-256h-512v-256h768v-256h-1280v1280h512v256h256v-256h512v-256h-768v-256h512z" />
    <glyph glyph-name="Edieresis" unicode="&#xcb;" 
d="M512 1792v-256h-256v256h256zM768 1792h256v-256h-256v256zM1024 768v-256h-512v-256h768v-256h-1280v1280h1280v-256h-768v-256h512z" />
    <glyph glyph-name="egrave" unicode="&#xe8;" 
d="M512 768h256v256h-256v-256zM256 1792h256v-256h-256v256zM1280 1024v-512h-768v-256h768v-256h-1024v256h-256v768h256v256h251v256h261v-256h256v-256h256z" />
    <glyph glyph-name="edieresis" unicode="&#xeb;" 
d="M768 1792h256v-256h-256v256zM512 768h256v256h-256v-256zM256 1792h256v-256h-256v256zM1280 1024v-512h-768v-256h768v-256h-1024v256h-256v768h256v256h768v-256h256z" />
    <glyph glyph-name="Idieresis" unicode="&#xcf;" horiz-adv-x="1024" 
d="M768 1536h-256v256h256v-256zM0 1792h256v-256h-256v256zM256 0v1280h512v-1280h-512z" />
    <glyph glyph-name="Icircumflex" unicode="&#xce;" horiz-adv-x="1024" 
d="M512 1280v254l2 2h254v-256h-256zM256 1792h256v-256h-256v256zM0 0v1536h256v-256h256v-1280h-512z" />
    <glyph glyph-name="icircumflex" unicode="&#xee;" horiz-adv-x="1024" 
d="M512 1280v254l2 2h254v-256h-256zM256 1792h256v-256h-256v256zM0 0v1536h256v-256h256v-1280h-512z" />
    <glyph glyph-name="idieresis" unicode="&#xef;" horiz-adv-x="1024" 
d="M768 1536h-256v256h256v-256zM0 1792h256v-256h-256v256zM256 0v1280h512v-1280h-512z" />
    <glyph glyph-name="Ograve" unicode="&#xd2;" horiz-adv-x="1792" 
d="M512 1792h256v-256h-256v256zM1024 256v768h-512v-768h512zM256 0v256h-256v768h256v256h512v256h256v-256h256v-256h256v-768h-256v-256h-1024z" />
    <glyph glyph-name="ograve" unicode="&#xf2;" 
d="M256 1792h256v-256h-256v256zM768 256v768h-256v-768h256zM256 0v256h-256v768h256v256h256v256h256v-256h256v-256h256v-768h-256v-256h-768z" />
    <glyph glyph-name="Ucircumflex" unicode="&#xdb;" 
d="M512 1534v-1278h256v1280h-256v256h256v-256h256v-256h256v-1024h-256v-256h-768v256h-256v1024h256v256h254z" />
    <glyph glyph-name="Ugrave" unicode="&#xd9;" 
d="M256 1792h256v-256h256v-256h512v-1024h-256v-256h-768v256h-256v1024h510l2 -2v-1022h256v1024h-256v256h-256v256z" />
    <glyph glyph-name="ugrave" unicode="&#xf9;" 
d="M256 256h-256v1024h510l2 -2v-1022h256v1024h-256v256h-256v256h256v-256h256v-256h512v-1280h-1024v256z" />
    <glyph glyph-name="ucircumflex" unicode="&#xfb;" 
d="M256 256h-256v1024h256v256h254l2 -2v-1278h256v1280h-256v256h256v-256h256v-256h256v-1280h-1024v256z" />
    <glyph glyph-name="germandbls" unicode="&#xdf;" 
d="M768 1536h-256v-256h256v256zM768 1024h-256v-1280h-512v1792h256v256h768v-256h256v-256h-256v-256h256v-768h-256v-256h-256v1024z" />
    <glyph glyph-name="Oslash" unicode="&#xd8;" horiz-adv-x="1792" 
d="M512 1536v-512h256v256h256v256h-512zM1024 768h-256v-256h-256v-256h512v512zM256 1792h1280v-1536h-256v-256h-1280v1536h256v256z" />
    <glyph glyph-name="quoteright" unicode="&#x2019;" horiz-adv-x="512" 
d="M0 1792h256v-512h-256v512z" />
    <glyph glyph-name="space" unicode="&#xa0;" horiz-adv-x="768" 
 />
    <glyph glyph-name="zero" unicode="0" 
d="M768 256v1280h-256v-1280h256zM256 0v256h-256v1280h256v256h768v-256h256v-1280h-256v-256h-768z" />
    <glyph glyph-name="oslash" unicode="&#xf8;" 
d="M768 1024h-256v-256h256v256zM768 512h-256v-256h256v256zM256 1024v256h1024v-1024h-256v-256h-1024v1024h256z" />
    <glyph glyph-name="ordmasculine" unicode="&#xba;" horiz-adv-x="1024" 
d="M512 1280v256h-256v256h256v-256h256v-256h-256zM512 1280v-256h-256v256h-256v256h256v-256h256zM0 768h768v-256h-768v256z" />
    <glyph glyph-name="grave" unicode="`" horiz-adv-x="768" 
d="M256 1536h-256v256h256v-256h256v-256h-256v256z" />
    <glyph glyph-name="Ydieresis" unicode="&#x178;" horiz-adv-x="1792" 
d="M1024 1792h256v-256h-256v256zM256 1792h256v-256h-256v256zM1024 1280h512v-256h-256v-256h-256v-768h-512v768h-256v256h-256v256h512v-256h512v256z" />
    <glyph glyph-name="Aring" unicode="&#xc5;" 
d="M512 768h256v256h-256v-256zM512 1534v-254h256v256h-256v256h256v-256h256v-512h256v-1024h-512v512h-256v-512h-512v1024h256v512h254z" />
    <glyph glyph-name="aring" unicode="&#xe5;" 
d="M512 256h256v256h-256v-256zM512 1534v-254h256v256h-256v256h256v-256h256v-256h256v-1280h-1024v256h-256v256h256v256h512v256h-512v512h254z" />
    <glyph glyph-name="ydieresis" unicode="&#xff;" 
d="M256 1792h256v-256h-256v256zM768 1792h256v-256h-256v256zM768 512v768h512v-1280h-256v-256h-768v256h512v256h-512v256h-256v768h512v-768h256z" />
    <glyph glyph-name="brokenbar" unicode="&#xa6;" horiz-adv-x="768" 
d="M0 1792h512v-2048h-512v2048z" />
    <glyph glyph-name="Euro" unicode="&#x20ac;" horiz-adv-x="1792" 
d="M1280 1024v254l2 2h254v-256h-256zM1280 512h256v-256h-256v256zM512 1536h768v-256h-768v256zM512 256h-256v256h-256v512h256v256h256v-256h768v-256h-256v-256h-512v-256h768v-256h-768v256z" />
    <glyph glyph-name="gbreve" unicode="&#x11f;" 
d="M1024 1792h256v-256h-256v256zM512 512h256v512h-256v-512zM0 1792h256v-256h768v-256h256v-1280h-256v-256h-768v256h512v256h-512v256h-256v512h256v512h-256v256z" />
    <glyph glyph-name="Gbreve" unicode="&#x11e;" 
d="M1024 1792h256v-256h-256v256zM0 1792h256v-256h768v-512h-512v-768h256v512h512v-768h-1024v256h-256v768h256v512h-256v256z" />
    <glyph glyph-name="scaron" unicode="&#x161;" horiz-adv-x="1024" 
d="M0 2048h256v-2560h-256v2560z" />
    <glyph glyph-name="Yacute" unicode="&#xdd;" horiz-adv-x="1792" 
d="M1024 1792h256v-256h-256v256zM768 1536h256v-256h512v-256h-256v-256h-256v-768h-512v768h-256v256h-256v256h512v-256h512v256h-256v256z" />
    <glyph glyph-name="yacute" unicode="&#xfd;" 
d="M512 1536h256v-256h-256v256zM768 1792h256v-256h-256v256zM768 512v768h512v-1280h-256v-256h-768v256h512v256h-512v256h-256v768h510l2 -2v-766h256z" />
  </font>
</defs>
</svg>
