<?xml version="1.0" encoding="UTF-8" standalone="no"?>
<svg width="261px" height="141px" viewBox="0 0 261 141" version="1.1" xmlns="http://www.w3.org/2000/svg" xmlns:xlink="http://www.w3.org/1999/xlink" xmlns:sketch="http://www.bohemiancoding.com/sketch/ns">
    <!-- Generator: Sketch 3.3.2 (12043) - http://www.bohemiancoding.com/sketch -->
    <title>Group</title>
    <desc>Created with Sketch.</desc>
    <defs></defs>
    <g id="Page-1" stroke="none" stroke-width="1" fill="none" fill-rule="evenodd" sketch:type="MSPage">
        <g id="Group" sketch:type="MSLayerGroup" fill="#34352D">
            <rect id="Rectangle-46" sketch:type="MSShapeGroup" x="71" y="115" width="87" height="4"></rect>
            <rect id="Rectangle-46-Copy" sketch:type="MSShapeGroup" x="77" y="119" width="25" height="4"></rect>
            <rect id="Rectangle-46-Copy-3" sketch:type="MSShapeGroup" x="133" y="119" width="20" height="4"></rect>
            <rect id="Rectangle-46-Copy-4" sketch:type="MSShapeGroup" x="139" y="123" width="8" height="4"></rect>
            <rect id="Rectangle-46-Copy-5" sketch:type="MSShapeGroup" x="124" y="127" width="15" height="4"></rect>
            <rect id="Rectangle-46-Copy-6" sketch:type="MSShapeGroup" x="81" y="131" width="43" height="4"></rect>
            <rect id="Rectangle-46-Copy-7" sketch:type="MSShapeGroup" x="111" y="88" width="13" height="4"></rect>
            <rect id="Rectangle-46-Copy-8" sketch:type="MSShapeGroup" x="106" y="92" width="6" height="4"></rect>
            <rect id="Rectangle-46-Copy-11" sketch:type="MSShapeGroup" x="124" y="92" width="6" height="4"></rect>
            <rect id="Rectangle-46-Copy-9" sketch:type="MSShapeGroup" x="103" y="96" width="3" height="4"></rect>
            <rect id="Rectangle-46-Copy-12" sketch:type="MSShapeGroup" x="130" y="96" width="3" height="4"></rect>
            <rect id="Rectangle-46-Copy-10" sketch:type="MSShapeGroup" x="100" y="100" width="3" height="7"></rect>
            <rect id="Rectangle-46-Copy-13" sketch:type="MSShapeGroup" x="133" y="100" width="3" height="7"></rect>
            <rect id="Rectangle-46-Copy-14" sketch:type="MSShapeGroup" x="130" y="107" width="3" height="4"></rect>
            <rect id="Rectangle-46-Copy-16" sketch:type="MSShapeGroup" x="158" y="111" width="7" height="4"></rect>
            <rect id="Rectangle-46-Copy-17" sketch:type="MSShapeGroup" x="165" y="107" width="12" height="4"></rect>
            <rect id="Rectangle-46-Copy-18" sketch:type="MSShapeGroup" x="165" y="107" width="12" height="4"></rect>
            <rect id="Rectangle-46-Copy-19" sketch:type="MSShapeGroup" x="157" y="100" width="6" height="4"></rect>
            <rect id="Rectangle-46-Copy-20" sketch:type="MSShapeGroup" x="158" y="96" width="8" height="4"></rect>
            <rect id="Rectangle-46-Copy-21" sketch:type="MSShapeGroup" x="159" y="92" width="9" height="4"></rect>
            <rect id="Rectangle-46-Copy-22" sketch:type="MSShapeGroup" x="161" y="88" width="6" height="4"></rect>
            <rect id="Rectangle-46-Copy-23" sketch:type="MSShapeGroup" x="164" y="84" width="2" height="4"></rect>
            <rect id="Rectangle-46-Copy-32" sketch:type="MSShapeGroup" x="165" y="80" width="6" height="4"></rect>
            <rect id="Rectangle-46-Copy-33" sketch:type="MSShapeGroup" x="170" y="84" width="3" height="4"></rect>
            <rect id="Rectangle-46-Copy-44" sketch:type="MSShapeGroup" x="174" y="80" width="9" height="4"></rect>
            <rect id="Rectangle-46-Copy-45" sketch:type="MSShapeGroup" x="178" y="84" width="9" height="4"></rect>
            <rect id="Rectangle-46-Copy-46" sketch:type="MSShapeGroup" x="182" y="88" width="6" height="4"></rect>
            <rect id="Rectangle-46-Copy-34" sketch:type="MSShapeGroup" x="170" y="88" width="7" height="4"></rect>
            <rect id="Rectangle-46-Copy-35" sketch:type="MSShapeGroup" x="173" y="92" width="7" height="4"></rect>
            <rect id="Rectangle-46-Copy-36" sketch:type="MSShapeGroup" x="174" y="96" width="2" height="4"></rect>
            <rect id="Rectangle-46-Copy-37" sketch:type="MSShapeGroup" x="180" y="96" width="2" height="4"></rect>
            <rect id="Rectangle-46-Copy-38" sketch:type="MSShapeGroup" x="176" y="100" width="10" height="4"></rect>
            <rect id="Rectangle-46-Copy-39" sketch:type="MSShapeGroup" x="176" y="104" width="4" height="4"></rect>
            <rect id="Rectangle-46-Copy-40" sketch:type="MSShapeGroup" x="183" y="104" width="2" height="4"></rect>
            <rect id="Rectangle-46-Copy-41" sketch:type="MSShapeGroup" x="180" y="108" width="9" height="4"></rect>
            <rect id="Rectangle-46-Copy-42" sketch:type="MSShapeGroup" x="180" y="111" width="3" height="9"></rect>
            <rect id="Rectangle-46-Copy-43" sketch:type="MSShapeGroup" x="186" y="110" width="2" height="9"></rect>
            <rect id="Rectangle-46-Copy-24" sketch:type="MSShapeGroup" x="151" y="88" width="7" height="4"></rect>
            <rect id="Rectangle-46-Copy-25" sketch:type="MSShapeGroup" x="152" y="84" width="6" height="4"></rect>
            <rect id="Rectangle-46-Copy-26" sketch:type="MSShapeGroup" x="152" y="80" width="9" height="4"></rect>
            <rect id="Rectangle-46-Copy-27" sketch:type="MSShapeGroup" x="155" y="76" width="21" height="4"></rect>
            <rect id="Rectangle-46-Copy-28" sketch:type="MSShapeGroup" x="158" y="72" width="16" height="4"></rect>
            <rect id="Rectangle-46-Copy-29" sketch:type="MSShapeGroup" x="177" y="72" width="9" height="4"></rect>
            <rect id="Rectangle-46-Copy-30" sketch:type="MSShapeGroup" x="167" y="68" width="16" height="4"></rect>
            <rect id="Rectangle-46-Copy-31" sketch:type="MSShapeGroup" x="170" y="64" width="9" height="4"></rect>
            <rect id="Rectangle-46-Copy-15" sketch:type="MSShapeGroup" x="103" y="107" width="3" height="4"></rect>
            <rect id="Rectangle-46-Copy-2" sketch:type="MSShapeGroup" x="83" y="123" width="13" height="4"></rect>
            <path d="M7,126 L7,122 L4,122 L4,122 L4,126 L1,126 L1,121 L1,118 L15,118 L15,121 L15,126 L12,126 L12,122 L12,122 L9,122 L9,122 L9,126 L13,126 L13,130 L9,130 L9,141 L7,141 L7,130 L3,130 L3,126 L7,126 Z" id="Rectangle-41" sketch:type="MSShapeGroup"></path>
            <rect id="Rectangle-30" sketch:type="MSShapeGroup" x="0" y="0" width="12" height="26"></rect>
            <path d="M251,122 L248,122 L248,140 L260,140 L260,122 L257,122 L257,118 L251,118 L251,122 Z M249.846154,123.8 L258.153846,123.8 L258.153846,138.2 L249.846154,138.2 L249.846154,123.8 Z" id="Rectangle-38" sketch:type="MSShapeGroup"></path>
            <rect id="Rectangle-30-Copy" sketch:type="MSShapeGroup" x="0" y="31" width="8" height="26"></rect>
            <rect id="Rectangle-30-Copy-2" sketch:type="MSShapeGroup" x="0" y="62" width="5" height="26"></rect>
            <rect id="Rectangle-30-Copy-3" sketch:type="MSShapeGroup" x="0" y="92" width="5" height="23"></rect>
            <rect id="Rectangle-30-Copy-7" sketch:type="MSShapeGroup" x="249" y="0" width="12" height="26"></rect>
            <rect id="Rectangle-30-Copy-4" sketch:type="MSShapeGroup" x="252" y="31" width="8" height="26"></rect>
            <rect id="Rectangle-30-Copy-5" sketch:type="MSShapeGroup" x="255" y="62" width="5" height="26"></rect>
            <rect id="Rectangle-30-Copy-6" sketch:type="MSShapeGroup" x="255" y="92" width="5" height="23"></rect>
        </g>
    </g>
</svg>