<?xml version="1.0" encoding="UTF-8" standalone="no"?>
<svg width="261px" height="141px" viewBox="0 0 261 141" version="1.1" xmlns="http://www.w3.org/2000/svg" xmlns:xlink="http://www.w3.org/1999/xlink" xmlns:sketch="http://www.bohemiancoding.com/sketch/ns">
    <!-- Generator: Sketch 3.3.2 (12043) - http://www.bohemiancoding.com/sketch -->
    <title>Group</title>
    <desc>Created with Sketch.</desc>
    <defs></defs>
    <g id="Page-1" stroke="none" stroke-width="1" fill="none" fill-rule="evenodd" sketch:type="MSPage">
        <g id="Group" sketch:type="MSLayerGroup">
            <rect id="Rectangle-46" fill="#686B56" sketch:type="MSShapeGroup" x="71" y="95" width="87" height="4"></rect>
            <rect id="Rectangle-46-Copy" fill="#686B56" sketch:type="MSShapeGroup" x="77" y="99" width="25" height="4"></rect>
            <rect id="Rectangle-46-Copy-3" fill="#686B56" sketch:type="MSShapeGroup" x="133" y="99" width="20" height="4"></rect>
            <rect id="Rectangle-46-Copy-4" fill="#686B56" sketch:type="MSShapeGroup" x="139" y="103" width="8" height="4"></rect>
            <rect id="Rectangle-46-Copy-5" fill="#686B56" sketch:type="MSShapeGroup" x="124" y="107" width="15" height="4"></rect>
            <rect id="Rectangle-46-Copy-6" fill="#686B56" sketch:type="MSShapeGroup" x="81" y="111" width="43" height="4"></rect>
            <rect id="Rectangle-46-Copy-7" fill="#686B56" sketch:type="MSShapeGroup" x="111" y="68" width="13" height="4"></rect>
            <rect id="Rectangle-46-Copy-8" fill="#686B56" sketch:type="MSShapeGroup" x="106" y="72" width="6" height="4"></rect>
            <rect id="Rectangle-46-Copy-11" fill="#686B56" sketch:type="MSShapeGroup" x="124" y="72" width="6" height="4"></rect>
            <rect id="Rectangle-46-Copy-9" fill="#686B56" sketch:type="MSShapeGroup" x="103" y="76" width="3" height="4"></rect>
            <rect id="Rectangle-46-Copy-12" fill="#686B56" sketch:type="MSShapeGroup" x="130" y="76" width="3" height="4"></rect>
            <rect id="Rectangle-46-Copy-10" fill="#686B56" sketch:type="MSShapeGroup" x="100" y="80" width="3" height="7"></rect>
            <rect id="Rectangle-46-Copy-13" fill="#686B56" sketch:type="MSShapeGroup" x="133" y="80" width="3" height="7"></rect>
            <rect id="Rectangle-46-Copy-14" fill="#686B56" sketch:type="MSShapeGroup" x="130" y="87" width="3" height="4"></rect>
            <rect id="Rectangle-46-Copy-16" fill="#686B56" sketch:type="MSShapeGroup" x="158" y="91" width="7" height="4"></rect>
            <rect id="Rectangle-46-Copy-17" fill="#686B56" sketch:type="MSShapeGroup" x="165" y="87" width="12" height="4"></rect>
            <rect id="Rectangle-46-Copy-18" fill="#686B56" sketch:type="MSShapeGroup" x="165" y="87" width="12" height="4"></rect>
            <rect id="Rectangle-46-Copy-19" fill="#686B56" sketch:type="MSShapeGroup" x="157" y="80" width="6" height="4"></rect>
            <rect id="Rectangle-46-Copy-20" fill="#686B56" sketch:type="MSShapeGroup" x="158" y="76" width="8" height="4"></rect>
            <rect id="Rectangle-46-Copy-21" fill="#686B56" sketch:type="MSShapeGroup" x="159" y="72" width="9" height="4"></rect>
            <rect id="Rectangle-46-Copy-22" fill="#686B56" sketch:type="MSShapeGroup" x="161" y="68" width="6" height="4"></rect>
            <rect id="Rectangle-46-Copy-23" fill="#686B56" sketch:type="MSShapeGroup" x="164" y="64" width="2" height="4"></rect>
            <rect id="Rectangle-46-Copy-32" fill="#686B56" sketch:type="MSShapeGroup" x="165" y="60" width="6" height="4"></rect>
            <rect id="Rectangle-46-Copy-33" fill="#686B56" sketch:type="MSShapeGroup" x="170" y="64" width="3" height="4"></rect>
            <rect id="Rectangle-46-Copy-44" fill="#686B56" sketch:type="MSShapeGroup" x="174" y="60" width="9" height="4"></rect>
            <rect id="Rectangle-46-Copy-45" fill="#686B56" sketch:type="MSShapeGroup" x="178" y="64" width="9" height="4"></rect>
            <rect id="Rectangle-46-Copy-46" fill="#686B56" sketch:type="MSShapeGroup" x="182" y="68" width="6" height="4"></rect>
            <rect id="Rectangle-46-Copy-34" fill="#686B56" sketch:type="MSShapeGroup" x="170" y="68" width="7" height="4"></rect>
            <rect id="Rectangle-46-Copy-35" fill="#686B56" sketch:type="MSShapeGroup" x="173" y="72" width="7" height="4"></rect>
            <rect id="Rectangle-46-Copy-36" fill="#686B56" sketch:type="MSShapeGroup" x="174" y="76" width="2" height="4"></rect>
            <rect id="Rectangle-46-Copy-37" fill="#686B56" sketch:type="MSShapeGroup" x="180" y="76" width="2" height="4"></rect>
            <rect id="Rectangle-46-Copy-38" fill="#686B56" sketch:type="MSShapeGroup" x="176" y="80" width="10" height="4"></rect>
            <rect id="Rectangle-46-Copy-39" fill="#686B56" sketch:type="MSShapeGroup" x="176" y="84" width="4" height="4"></rect>
            <rect id="Rectangle-46-Copy-40" fill="#686B56" sketch:type="MSShapeGroup" x="183" y="84" width="2" height="4"></rect>
            <rect id="Rectangle-46-Copy-41" fill="#686B56" sketch:type="MSShapeGroup" x="180" y="88" width="9" height="4"></rect>
            <rect id="Rectangle-46-Copy-42" fill="#686B56" sketch:type="MSShapeGroup" x="180" y="91" width="3" height="9"></rect>
            <rect id="Rectangle-46-Copy-43" fill="#686B56" sketch:type="MSShapeGroup" x="186" y="90" width="2" height="9"></rect>
            <rect id="Rectangle-46-Copy-24" fill="#686B56" sketch:type="MSShapeGroup" x="151" y="68" width="7" height="4"></rect>
            <rect id="Rectangle-46-Copy-25" fill="#686B56" sketch:type="MSShapeGroup" x="152" y="64" width="6" height="4"></rect>
            <rect id="Rectangle-46-Copy-26" fill="#686B56" sketch:type="MSShapeGroup" x="152" y="60" width="9" height="4"></rect>
            <rect id="Rectangle-46-Copy-27" fill="#686B56" sketch:type="MSShapeGroup" x="155" y="56" width="21" height="4"></rect>
            <rect id="Rectangle-46-Copy-28" fill="#686B56" sketch:type="MSShapeGroup" x="158" y="52" width="16" height="4"></rect>
            <rect id="Rectangle-46-Copy-29" fill="#686B56" sketch:type="MSShapeGroup" x="177" y="52" width="9" height="4"></rect>
            <rect id="Rectangle-46-Copy-30" fill="#686B56" sketch:type="MSShapeGroup" x="167" y="48" width="16" height="4"></rect>
            <rect id="Rectangle-46-Copy-31" fill="#686B56" sketch:type="MSShapeGroup" x="170" y="44" width="9" height="4"></rect>
            <rect id="Rectangle-46-Copy-15" fill="#686B56" sketch:type="MSShapeGroup" x="103" y="87" width="3" height="4"></rect>
            <rect id="Rectangle-46-Copy-2" fill="#686B56" sketch:type="MSShapeGroup" x="83" y="103" width="13" height="4"></rect>
            <path d="M7,126 L7,122 L4,122 L4,122 L4,126 L1,126 L1,121 L1,118 L15,118 L15,121 L15,126 L12,126 L12,122 L12,122 L9,122 L9,122 L9,126 L13,126 L13,130 L9,130 L9,141 L7,141 L7,130 L3,130 L3,126 L7,126 Z" id="Rectangle-41" fill="#61634D" sketch:type="MSShapeGroup"></path>
            <rect id="Rectangle-30" opacity="0.6" fill="#484C3C" sketch:type="MSShapeGroup" x="0" y="0" width="12" height="26"></rect>
            <path d="M251,122 L248,122 L248,140 L260,140 L260,122 L257,122 L257,118 L251,118 L251,122 Z M249.846154,123.8 L258.153846,123.8 L258.153846,138.2 L249.846154,138.2 L249.846154,123.8 Z" id="Rectangle-38" fill="#686B56" sketch:type="MSShapeGroup"></path>
            <rect id="Rectangle-30-Copy" opacity="0.6" fill="#484C3C" sketch:type="MSShapeGroup" x="0" y="31" width="8" height="26"></rect>
            <rect id="Rectangle-30-Copy-2" opacity="0.6" fill="#484C3C" sketch:type="MSShapeGroup" x="0" y="62" width="5" height="26"></rect>
            <rect id="Rectangle-30-Copy-3" opacity="0.6" fill="#484C3C" sketch:type="MSShapeGroup" x="0" y="92" width="5" height="23"></rect>
            <rect id="Rectangle-30-Copy-7" opacity="0.6" fill="#484C3C" sketch:type="MSShapeGroup" x="249" y="0" width="12" height="26"></rect>
            <rect id="Rectangle-30-Copy-4" opacity="0.6" fill="#484C3C" sketch:type="MSShapeGroup" x="252" y="31" width="8" height="26"></rect>
            <rect id="Rectangle-30-Copy-5" opacity="0.6" fill="#484C3C" sketch:type="MSShapeGroup" x="255" y="62" width="5" height="26"></rect>
            <rect id="Rectangle-30-Copy-6" opacity="0.6" fill="#484C3C" sketch:type="MSShapeGroup" x="255" y="92" width="5" height="23"></rect>
        </g>
    </g>
</svg>